<svg xmlns="http://www.w3.org/2000/svg" width="1200" height="800" viewBox="0 0 1200 800"><rect width="100%" height="100%" fill="#cccccc"/><path fill="#000000" d="M254.06 360.685v64.35h-12.02v-64.35zm23.63 64.35H266.7v-45.66h6.72q2.13 0 2.8 2.01l.71 3.38q1.2-1.34 2.51-2.45 1.32-1.11 2.81-1.91t3.2-1.27q1.72-.47 3.76-.47 4.32 0 7.1 2.34 2.78 2.33 4.16 6.21 1.07-2.27 2.67-3.9 1.6-1.62 3.52-2.65 1.91-1.02 4.07-1.51t4.34-.49q3.78 0 6.72 1.16 2.93 1.16 4.94 3.38 2 2.23 3.04 5.43 1.05 3.2 1.05 7.34v29.06h-10.99v-29.06q0-4.36-1.91-6.56-1.92-2.2-5.61-2.2-1.69 0-3.14.57-1.45.58-2.54 1.67t-1.71 2.74-.62 3.78v29.06h-11.04v-29.06q0-4.58-1.84-6.67-1.85-2.09-5.41-2.09-2.4 0-4.47 1.17-2.07 1.18-3.85 3.23zm87.66-11.79v-7.7q-4.76.22-8.01.82t-5.2 1.54q-1.96.93-2.81 2.18-.84 1.24-.84 2.71 0 2.9 1.71 4.14 1.71 1.25 4.47 1.25 3.38 0 5.85-1.23 2.47-1.22 4.83-3.71m-23.23-23.99-1.95-3.51q7.87-7.21 18.95-7.21 4.01 0 7.17 1.31t5.34 3.65 3.31 5.58q1.14 3.25 1.14 7.12v28.84h-4.99q-1.55 0-2.4-.47-.85-.46-1.34-1.89l-.97-3.29q-1.74 1.56-3.39 2.74-1.64 1.17-3.42 1.98-1.78.8-3.81 1.22-2.02.42-4.47.42-2.89 0-5.34-.78t-4.23-2.33q-1.78-1.56-2.76-3.87-.98-2.32-.98-5.39 0-1.73.58-3.45.58-1.71 1.89-3.27 1.32-1.56 3.41-2.94t5.14-2.4 7.1-1.67q4.05-.64 9.25-.78v-2.67q0-4.58-1.96-6.78-1.95-2.2-5.65-2.2-2.67 0-4.43.62-1.75.62-3.09 1.4-1.33.78-2.42 1.4t-2.43.62q-1.16 0-1.96-.6t-1.29-1.4m60.97 11.84q2.05 0 3.56-.56 1.51-.55 2.51-1.53t1.52-2.36q.51-1.38.51-3.03 0-3.38-2.03-5.36-2.02-1.98-6.07-1.98t-6.08 1.98q-2.02 1.98-2.02 5.36 0 1.61.51 2.98.51 1.38 1.51 2.39 1.01 1 2.54 1.55 1.54.56 3.54.56m12.41 25.99q0-1.34-.8-2.18-.8-.85-2.18-1.32-1.38-.46-3.22-.69-1.85-.22-3.92-.33t-4.27-.2-4.3-.36q-1.82 1.03-2.96 2.41-1.13 1.38-1.13 3.2 0 1.2.6 2.25.6 1.04 1.91 1.8 1.32.76 3.41 1.18t5.12.42q3.07 0 5.29-.46 2.23-.47 3.67-1.3 1.45-.82 2.12-1.95.66-1.14.66-2.47m-2.18-46.15h13.13v4.09q0 1.96-2.36 2.41l-4.09.75q.93 2.36.93 5.17 0 3.38-1.35 6.11-1.36 2.74-3.76 4.66-2.41 1.91-5.68 2.95-3.27 1.05-7.05 1.05-1.34 0-2.58-.13-1.25-.14-2.45-.36-2.14 1.29-2.14 2.89 0 1.38 1.27 2.03 1.27.64 3.36.91t4.76.33q2.67.07 5.48.29 2.8.23 5.47.78 2.67.56 4.76 1.76t3.36 3.27 1.27 5.32q0 3.02-1.49 5.87t-4.32 5.08q-2.82 2.22-6.94 3.58-4.12 1.35-9.37 1.35-5.16 0-8.99-1-3.82-1-6.36-2.67t-3.78-3.85q-1.25-2.18-1.25-4.54 0-3.2 1.94-5.36 1.93-2.16 5.32-3.45-1.83-.93-2.9-2.49-1.06-1.56-1.06-4.09 0-1.03.37-2.12.38-1.09 1.12-2.15.73-1.07 1.84-2.03 1.12-.96 2.63-1.71-3.47-1.87-5.45-4.99-1.98-3.11-1.98-7.29 0-3.39 1.35-6.12 1.36-2.74 3.79-4.68 2.42-1.93 5.74-2.95 3.31-1.03 7.23-1.03 2.94 0 5.52.6t4.71 1.76m28.75 16.02h20.74q0-2.14-.6-4.03t-1.81-3.31q-1.2-1.43-3.04-2.25-1.85-.82-4.3-.82-4.76 0-7.5 2.71-2.73 2.72-3.49 7.7m28.04 6.63h-28.26q.26 3.52 1.24 6.08.98 2.55 2.58 4.22 1.61 1.67 3.81 2.49 2.2.83 4.87.83t4.61-.63q1.93-.62 3.38-1.37 1.45-.76 2.54-1.38 1.09-.63 2.11-.63 1.38 0 2.05 1.03l3.16 4q-1.83 2.14-4.1 3.58-2.27 1.45-4.74 2.32t-5.03 1.22q-2.55.36-4.96.36-4.76 0-8.85-1.58-4.1-1.58-7.12-4.67-3.03-3.1-4.76-7.66-1.74-4.56-1.74-10.57 0-4.67 1.51-8.79 1.52-4.11 4.34-7.16 2.83-3.05 6.9-4.83t9.19-1.78q4.32 0 7.96 1.38 3.65 1.38 6.28 4.03 2.62 2.65 4.12 6.49 1.49 3.85 1.49 8.79 0 2.5-.54 3.36-.53.87-2.04.87m60.07 11.79q3.47 0 6.21-1.15 2.73-1.16 4.6-3.25t2.87-5.07q1.01-2.99 1.01-6.68v-38.54h11.97v38.54q0 5.74-1.85 10.61-1.85 4.88-5.3 8.41-3.45 3.54-8.38 5.52-4.94 1.98-11.13 1.98-6.23 0-11.17-1.98t-8.39-5.52q-3.45-3.53-5.29-8.41-1.85-4.87-1.85-10.61v-38.54h11.97v38.5q0 3.69 1 6.67t2.89 5.1q1.9 2.11 4.63 3.27 2.74 1.15 6.21 1.15m47.97-33.99.76 3.6q1.38-1.38 2.91-2.56 1.54-1.18 3.25-2t3.67-1.29 4.27-.47q3.74 0 6.63 1.27 2.9 1.27 4.83 3.56 1.94 2.29 2.94 5.47t1 7.01v29.06h-10.99v-29.06q0-4.18-1.91-6.47-1.92-2.29-5.83-2.29-2.85 0-5.34 1.29-2.5 1.29-4.72 3.51v33.02h-10.99v-45.66h6.72q2.13 0 2.8 2.01m64.79 31.86v-7.7q-4.76.22-8.01.82t-5.2 1.54q-1.96.93-2.81 2.18-.84 1.24-.84 2.71 0 2.9 1.71 4.14 1.71 1.25 4.47 1.25 3.39 0 5.85-1.23 2.47-1.22 4.83-3.71m-23.23-23.99-1.95-3.51q7.87-7.21 18.95-7.21 4.01 0 7.17 1.31t5.34 3.65 3.31 5.58q1.14 3.25 1.14 7.12v28.84h-4.99q-1.55 0-2.4-.47-.84-.46-1.33-1.89l-.98-3.29q-1.74 1.56-3.39 2.74-1.64 1.17-3.42 1.98-1.78.8-3.81 1.22-2.02.42-4.47.42-2.89 0-5.34-.78t-4.23-2.33q-1.78-1.56-2.76-3.87-.97-2.32-.97-5.39 0-1.73.57-3.45.58-1.71 1.9-3.27 1.31-1.56 3.4-2.94t5.14-2.4 7.1-1.67q4.05-.64 9.25-.78v-2.67q0-4.58-1.95-6.78-1.96-2.2-5.66-2.2-2.67 0-4.42.62-1.76.62-3.1 1.4-1.33.78-2.42 1.4t-2.43.62q-1.15 0-1.96-.6-.8-.6-1.29-1.4m76.77-9.88h8.67l-18.11 45.66h-9.97l-18.11-45.66h9.08q1.25 0 2.07.58t1.09 1.47l8.81 24.39q.71 2.13 1.25 4.18.53 2.05.93 4.09.45-2.04.98-4.09t1.29-4.18l8.99-24.39q.31-.89 1.11-1.47t1.92-.58m38.62 33.87v-7.7q-4.76.22-8.01.82t-5.2 1.54q-1.96.93-2.81 2.18-.84 1.24-.84 2.71 0 2.9 1.71 4.14 1.71 1.25 4.47 1.25 3.38 0 5.85-1.23 2.47-1.22 4.83-3.71m-23.23-23.99-1.95-3.51q7.87-7.21 18.95-7.21 4.01 0 7.17 1.31t5.34 3.65 3.31 5.58q1.14 3.25 1.14 7.12v28.84h-4.99q-1.55 0-2.4-.47-.85-.46-1.34-1.89l-.97-3.29q-1.74 1.56-3.39 2.74-1.64 1.17-3.42 1.98-1.78.8-3.81 1.22-2.02.42-4.47.42-2.89 0-5.34-.78t-4.23-2.33q-1.78-1.56-2.76-3.87-.98-2.32-.98-5.39 0-1.73.58-3.45.58-1.71 1.89-3.27 1.32-1.56 3.41-2.94t5.14-2.4 7.1-1.67q4.05-.64 9.25-.78v-2.67q0-4.58-1.96-6.78-1.95-2.2-5.65-2.2-2.67 0-4.42.62-1.76.62-3.1 1.4-1.33.78-2.42 1.4t-2.43.62q-1.16 0-1.96-.6t-1.29-1.4m44.64-9.88h11.03v45.66h-11.03zm12.55-13.3q0 1.42-.58 2.67-.58 1.24-1.54 2.18-.95.93-2.24 1.49-1.3.56-2.76.56-1.43 0-2.7-.56-1.26-.56-2.2-1.49-.93-.94-1.49-2.18-.56-1.25-.56-2.67 0-1.47.56-2.76t1.49-2.23q.94-.93 2.2-1.49 1.27-.55 2.7-.55 1.46 0 2.76.55 1.29.56 2.24 1.49.96.94 1.54 2.23t.58 2.76m9.83-7.17h10.99v66.13h-10.99zm46.1 54.34v-7.7q-4.76.22-8.01.82t-5.2 1.54q-1.96.93-2.81 2.18-.84 1.24-.84 2.71 0 2.9 1.71 4.14 1.71 1.25 4.47 1.25 3.38 0 5.85-1.23 2.47-1.22 4.83-3.71m-23.23-23.99-1.95-3.51q7.87-7.21 18.95-7.21 4.01 0 7.17 1.31t5.34 3.65 3.31 5.58q1.14 3.25 1.14 7.12v28.84h-4.99q-1.55 0-2.4-.47-.85-.46-1.34-1.89l-.97-3.29q-1.74 1.56-3.39 2.74-1.64 1.17-3.42 1.98-1.78.8-3.81 1.22-2.02.42-4.47.42-2.89 0-5.34-.78t-4.23-2.33q-1.78-1.56-2.76-3.87-.98-2.32-.98-5.39 0-1.73.58-3.45.58-1.71 1.89-3.27 1.32-1.56 3.41-2.94t5.14-2.4 7.1-1.67q4.05-.64 9.25-.78v-2.67q0-4.58-1.96-6.78-1.95-2.2-5.65-2.2-2.67 0-4.42.62-1.76.62-3.1 1.4-1.33.78-2.42 1.4t-2.43.62q-1.16 0-1.96-.6t-1.29-1.4m55.27 3.47v20.47q1.87 2.27 4.07 3.21 2.21.93 4.65.93 2.54 0 4.57-.91 2.02-.91 3.44-2.85 1.43-1.93 2.19-4.94.75-3 .75-7.18 0-7.53-2.49-10.89-2.49-3.35-7.17-3.35-3.15 0-5.51 1.44-2.36 1.45-4.5 4.07m0-33.82v26.08q2.76-2.89 6.12-4.61 3.36-1.71 7.68-1.71 3.96 0 7.14 1.56t5.43 4.47q2.25 2.92 3.45 7.05 1.2 4.14 1.2 9.3 0 5.57-1.38 10.11t-3.94 7.76q-2.56 3.23-6.16 5.01-3.61 1.78-8.01 1.78-2.14 0-3.87-.43-1.74-.42-3.21-1.17-1.47-.76-2.69-1.85t-2.34-2.43l-.49 3.07q-.26 1.16-.91 1.65-.64.49-1.76.49h-7.25v-66.13zm39.65 0h10.99v66.13h-10.99zm30.66 38.05h20.74q0-2.14-.6-4.03t-1.8-3.31q-1.21-1.43-3.05-2.25-1.85-.82-4.3-.82-4.76 0-7.49 2.71-2.74 2.72-3.5 7.7m28.04 6.63h-28.26q.27 3.52 1.25 6.08.97 2.55 2.58 4.22 1.6 1.67 3.8 2.49 2.2.83 4.87.83t4.61-.63q1.94-.62 3.38-1.37 1.45-.76 2.54-1.38 1.09-.63 2.11-.63 1.38 0 2.05 1.03l3.16 4q-1.83 2.14-4.1 3.58-2.26 1.45-4.73 2.32t-5.03 1.22q-2.56.36-4.96.36-4.77 0-8.86-1.58t-7.12-4.67q-3.03-3.1-4.76-7.66-1.74-4.56-1.74-10.57 0-4.67 1.52-8.79 1.51-4.11 4.33-7.16 2.83-3.05 6.9-4.83t9.19-1.78q4.32 0 7.97 1.38t6.27 4.03q2.63 2.65 4.12 6.49 1.49 3.85 1.49 8.79 0 2.5-.54 3.36-.53.87-2.04.87"/></svg>